<svg width="2385" height="1974" viewBox="0 0 2385 1974" fill="none" xmlns="http://www.w3.org/2000/svg">
<g clip-path="url(#clip0_576_1579)">
<g clip-path="url(#clip1_576_1579)">
<path d="M283.121 1241.08C373.078 1241.08 446.002 1202.69 446.002 1155.35C446.002 1108 373.078 1069.62 283.121 1069.62C193.164 1069.62 120.239 1108 120.239 1155.35C120.239 1202.69 193.164 1241.08 283.121 1241.08Z" stroke="url(#paint0_angular_576_1579)" stroke-width="29.3921" stroke-linecap="round" stroke-linejoin="round"/>
<path d="M416.148 1096.3L368.99 712.03M463.14 627.11L565.937 617.026C569.929 616.635 573.992 617.142 577.894 618.519C581.796 619.896 585.46 622.116 588.678 625.053C591.895 627.989 594.603 631.584 596.646 635.632C598.689 639.68 600.027 644.103 600.585 648.647L710.465 687.525L609.523 721.482C610.081 726.026 608.834 734.951 608.834 734.951L603.621 746.823L594.679 755.292C594.679 755.292 587.36 758.675 583.368 759.067C579.375 759.459 450.169 772.132 450.169 772.132L436.985 664.694C436.427 660.15 436.661 655.574 437.674 651.226C438.687 646.878 440.458 642.843 442.887 639.353C447.792 632.305 455.077 627.901 463.14 627.11Z" stroke="url(#paint1_radial_576_1579)" stroke-width="39.1895" stroke-linecap="round" stroke-linejoin="round"/>
</g>
<path d="M675.092 960.588C675.092 969.135 674.008 976.853 671.839 983.742C669.67 990.503 666.8 996.499 663.228 1001.73C659.656 1006.83 655.51 1011.23 650.79 1014.93C646.07 1018.5 641.095 1021.44 635.864 1023.74C630.762 1026.03 625.531 1027.75 620.173 1028.9C614.943 1029.92 609.968 1030.43 605.248 1030.43H470.534V980.68H604.865C611.626 980.68 616.729 978.958 620.173 975.514C623.618 972.069 625.34 967.094 625.34 960.588C624.702 947.321 618.005 940.687 605.248 940.687H528.131C517.16 940.687 507.848 938.774 500.194 934.947C492.539 931.119 486.289 926.336 481.441 920.595C476.721 914.854 473.276 908.667 471.108 902.034C469.067 895.4 468.046 889.213 468.046 883.472C468.046 872.374 470.023 863.061 473.978 855.534C477.933 847.88 482.908 841.693 488.904 836.973C494.9 832.253 501.406 828.872 508.422 826.831C515.438 824.662 522.008 823.578 528.131 823.578H650.407V873.33H528.514C525.963 873.33 523.922 873.649 522.391 874.287C520.988 874.797 519.903 875.563 519.138 876.583C518.5 877.476 518.117 878.497 517.99 879.645C517.862 880.666 517.798 881.686 517.798 882.707C517.926 884.748 518.309 886.342 518.946 887.491C519.584 888.639 520.35 889.468 521.243 889.978C522.263 890.488 523.348 890.807 524.496 890.935C525.771 890.935 526.983 890.935 528.131 890.935H605.248C618.005 890.935 628.848 893.231 637.778 897.824C646.708 902.416 653.915 908.221 659.401 915.237C664.887 922.126 668.841 929.652 671.265 937.817C673.816 945.981 675.092 953.572 675.092 960.588Z" fill="url(#paint2_angular_576_1579)"/>
<path d="M935.144 960.588C935.144 969.135 934.059 976.853 931.89 983.742C929.722 990.503 926.851 996.499 923.28 1001.73C919.708 1006.83 915.562 1011.23 910.841 1014.93C906.121 1018.5 901.146 1021.44 895.916 1023.74C890.813 1026.03 885.583 1027.75 880.225 1028.9C874.994 1029.92 870.019 1030.43 865.299 1030.43H775.553C768.665 1030.43 761.138 1029.22 752.974 1026.8C744.809 1024.37 737.219 1020.42 730.202 1014.93C723.314 1009.32 717.509 1002.11 712.789 993.31C708.197 984.38 705.9 973.473 705.9 960.588V893.231C705.9 880.474 708.197 869.695 712.789 860.892C717.509 851.962 723.314 844.755 730.202 839.269C737.219 833.656 744.809 829.638 752.974 827.214C761.138 824.79 768.665 823.578 775.553 823.578H865.299C878.056 823.578 888.899 825.874 897.829 830.467C906.759 835.059 913.967 840.864 919.452 847.88C924.938 854.769 928.893 862.295 931.316 870.46C933.868 878.624 935.144 886.215 935.144 893.231V960.588ZM885.391 893.614C885.391 886.725 883.669 881.622 880.225 878.306C876.78 874.989 871.805 873.33 865.299 873.33H775.936C769.303 873.33 764.264 875.052 760.819 878.497C757.375 881.814 755.653 886.725 755.653 893.231V960.588C755.653 967.094 757.375 972.069 760.819 975.514C764.264 978.958 769.303 980.68 775.936 980.68H865.299C872.06 980.68 877.099 978.958 880.416 975.514C883.733 972.069 885.391 967.094 885.391 960.588V893.614Z" fill="url(#paint3_angular_576_1579)"/>
<path d="M1206.87 1030.43H1157.12V915.62C1157.12 909.114 1155.97 903.309 1153.67 898.206C1151.5 892.976 1148.5 888.511 1144.68 884.812C1140.85 881.112 1136.32 878.306 1131.09 876.392C1125.99 874.351 1120.44 873.33 1114.44 873.33H1027.38V1030.43H977.624V848.263C977.624 844.818 978.262 841.629 979.538 838.695C980.814 835.633 982.6 833.018 984.896 830.849C987.192 828.553 989.871 826.767 992.933 825.492C995.994 824.216 999.247 823.578 1002.69 823.578H1114.83C1121.08 823.578 1127.65 824.28 1134.54 825.683C1141.55 827.086 1148.44 829.382 1155.2 832.572C1162.09 835.633 1168.6 839.588 1174.72 844.436C1180.97 849.156 1186.46 854.96 1191.18 861.849C1196.02 868.61 1199.85 876.456 1202.66 885.386C1205.46 894.316 1206.87 904.394 1206.87 915.62V1030.43Z" fill="url(#paint4_angular_576_1579)"/>
<path d="M2187.37 1137.17C2187.37 1145.72 2186.29 1153.37 2184.12 1160.13C2181.95 1167.02 2179.08 1173.02 2175.51 1178.12C2171.93 1183.35 2167.79 1187.75 2163.07 1191.32C2158.35 1195.02 2153.37 1198.02 2148.14 1200.32C2143.04 1202.61 2137.87 1204.27 2132.64 1205.29C2127.41 1206.44 2122.44 1207.02 2117.72 1207.02H487.296L517.913 1157.26H2117.72C2124.35 1157.26 2129.33 1155.54 2132.64 1152.1C2135.96 1148.65 2137.62 1143.68 2137.62 1137.17V741.41H2184.12L2187.37 1137.17ZM2117.72 1117.27H2027.97C2020.83 1117.27 2013.17 1116.06 2005.01 1113.63C1996.97 1111.21 1989.45 1107.26 1982.43 1101.77C1975.41 1096.16 1969.61 1088.95 1965.02 1080.15C1960.42 1071.22 1958.13 1060.31 1958.13 1047.43V741.41H2005.01L2007.88 1047.43C2007.88 1053.93 2009.6 1058.91 2013.05 1062.35C2016.49 1065.8 2021.59 1067.52 2028.35 1067.52H2117.72V1117.27Z" fill="url(#paint5_angular_576_1579)"/>
<path d="M1586.18 863.567H1534.8V817.128H1586.18V863.567ZM1586.18 1121.06H1534.8V907.437H1586.18V1121.06Z" fill="url(#paint6_angular_576_1579)"/>
<path d="M1940.3 1121.06H1917.38C1910 1121.06 1902.1 1119.81 1893.66 1117.3C1885.36 1114.8 1877.59 1110.72 1870.35 1105.05C1863.1 1099.25 1857.11 1091.81 1852.36 1082.72C1847.62 1073.5 1845.25 1062.24 1845.25 1048.93V866.136H1708.89C1701.91 866.136 1696.64 867.915 1693.09 871.472C1689.53 874.897 1687.75 879.969 1687.75 886.688V1121.06H1636.37V886.688C1636.37 877.861 1637.49 869.957 1639.73 862.974C1641.97 855.992 1644.93 849.866 1648.62 844.596C1652.44 839.195 1656.79 834.65 1661.67 830.961C1666.54 827.14 1671.61 824.044 1676.88 821.673C1682.28 819.301 1687.68 817.589 1693.09 816.535C1698.49 815.349 1703.63 814.756 1708.5 814.756H1897.02L1896.63 1048.93C1896.63 1055.25 1898.6 1060.32 1902.56 1064.15C1906.51 1067.83 1911.45 1069.68 1917.38 1069.68H1940.3V1121.06ZM1796.24 958.817H1708.5V907.437H1796.24V958.817Z" fill="url(#paint7_angular_576_1579)"/>
<path d="M1487.62 1051.44C1487.62 1059.99 1486.54 1067.64 1484.37 1074.41C1482.2 1081.29 1479.33 1087.29 1475.76 1092.39C1472.19 1097.62 1468.04 1102.02 1463.32 1105.6C1458.6 1109.3 1453.63 1112.29 1448.4 1114.59C1443.29 1116.89 1438.06 1118.55 1432.7 1119.57C1427.47 1120.71 1422.5 1121.29 1417.78 1121.29H471.376V1074.41L1417.78 1071.54C1424.54 1071.54 1429.58 1069.81 1432.9 1066.37C1436.21 1062.92 1437.87 1057.95 1437.87 1051.44V894.341C1437.87 887.835 1436.21 882.924 1432.9 879.607C1429.58 876.162 1424.54 874.44 1417.78 874.44H1328.03C1321.91 874.44 1317.06 876.354 1313.49 880.181C1309.92 883.88 1308.13 888.6 1308.13 894.341V961.698C1308.13 968.204 1309.85 973.179 1313.3 976.624C1316.74 980.068 1321.78 981.79 1328.42 981.79H1417.78V1031.54H1328.03C1323.31 1031.54 1318.34 1031.03 1313.11 1030.01C1307.88 1028.86 1302.65 1027.14 1297.42 1024.85C1292.31 1022.55 1287.4 1019.61 1282.68 1016.04C1277.96 1012.34 1273.82 1007.94 1270.24 1002.84C1266.67 997.609 1263.8 991.613 1261.63 984.852C1259.46 977.963 1258.38 970.245 1258.38 961.698V894.341C1258.38 889.621 1258.89 884.646 1259.91 879.415C1261.06 874.185 1262.78 869.018 1265.08 863.916C1267.37 858.685 1270.31 853.71 1273.88 848.99C1277.58 844.27 1281.98 840.124 1287.08 836.552C1292.31 832.98 1298.31 830.11 1305.07 827.941C1311.83 825.772 1319.49 824.688 1328.03 824.688H1417.78C1422.5 824.688 1427.47 825.262 1432.7 826.41C1438.06 827.431 1443.29 829.089 1448.4 831.385C1453.63 833.682 1458.6 836.679 1463.32 840.379C1468.04 843.951 1472.19 848.352 1475.76 853.582C1479.33 858.685 1482.2 864.617 1484.37 871.378C1486.54 878.14 1487.62 885.794 1487.62 894.341V1051.44Z" fill="url(#paint8_angular_576_1579)"/>
</g>
<defs>
<radialGradient id="paint0_angular_576_1579" cx="0" cy="0" r="1" gradientUnits="userSpaceOnUse" gradientTransform="translate(283.121 1155.35) rotate(90) scale(85.727 162.881)">
<stop offset="0.119792" stop-color="#6C46DA" stop-opacity="0.92"/>
<stop offset="0.875" stop-color="#E9527F" stop-opacity="0.94"/>
</radialGradient>
<radialGradient id="paint1_radial_576_1579" cx="0" cy="0" r="1" gradientUnits="userSpaceOnUse" gradientTransform="translate(465.751 593.225) rotate(101.317) scale(628.225 193.762)">
<stop offset="0.223958" stop-color="#9976E2"/>
<stop offset="0.463542" stop-color="#E63A63" stop-opacity="0.96"/>
<stop offset="0.744792" stop-color="#C7537D" stop-opacity="0.86"/>
</radialGradient>
<radialGradient id="paint2_angular_576_1579" cx="0" cy="0" r="1" gradientUnits="userSpaceOnUse" gradientTransform="translate(1327.71 974.213) rotate(90) scale(232.802 859.662)">
<stop offset="0.223958" stop-color="#EC33A2" stop-opacity="0.94"/>
<stop offset="0.744792" stop-color="#6C3FED" stop-opacity="0.92"/>
</radialGradient>
<radialGradient id="paint3_angular_576_1579" cx="0" cy="0" r="1" gradientUnits="userSpaceOnUse" gradientTransform="translate(1327.71 974.213) rotate(90) scale(232.802 859.662)">
<stop offset="0.223958" stop-color="#EC33A2" stop-opacity="0.94"/>
<stop offset="0.744792" stop-color="#6C3FED" stop-opacity="0.92"/>
</radialGradient>
<radialGradient id="paint4_angular_576_1579" cx="0" cy="0" r="1" gradientUnits="userSpaceOnUse" gradientTransform="translate(1327.71 974.213) rotate(90) scale(232.802 859.662)">
<stop offset="0.223958" stop-color="#EC33A2" stop-opacity="0.94"/>
<stop offset="0.744792" stop-color="#6C3FED" stop-opacity="0.92"/>
</radialGradient>
<radialGradient id="paint5_angular_576_1579" cx="0" cy="0" r="1" gradientUnits="userSpaceOnUse" gradientTransform="translate(1327.71 974.213) rotate(90) scale(232.802 859.662)">
<stop offset="0.223958" stop-color="#EC33A2" stop-opacity="0.94"/>
<stop offset="0.744792" stop-color="#6C3FED" stop-opacity="0.92"/>
</radialGradient>
<radialGradient id="paint6_angular_576_1579" cx="0" cy="0" r="1" gradientUnits="userSpaceOnUse" gradientTransform="translate(1327.71 974.213) rotate(90) scale(232.802 859.662)">
<stop offset="0.223958" stop-color="#EC33A2" stop-opacity="0.94"/>
<stop offset="0.744792" stop-color="#6C3FED" stop-opacity="0.92"/>
</radialGradient>
<radialGradient id="paint7_angular_576_1579" cx="0" cy="0" r="1" gradientUnits="userSpaceOnUse" gradientTransform="translate(1327.71 974.213) rotate(90) scale(232.802 859.662)">
<stop offset="0.223958" stop-color="#EC33A2" stop-opacity="0.94"/>
<stop offset="0.744792" stop-color="#6C3FED" stop-opacity="0.92"/>
</radialGradient>
<radialGradient id="paint8_angular_576_1579" cx="0" cy="0" r="1" gradientUnits="userSpaceOnUse" gradientTransform="translate(1327.71 974.213) rotate(90) scale(232.802 859.662)">
<stop offset="0.223958" stop-color="#EC33A2" stop-opacity="0.94"/>
<stop offset="0.744792" stop-color="#6C3FED" stop-opacity="0.92"/>
</radialGradient>
<clipPath id="clip0_576_1579">
<rect width="2385" height="1974" fill="white"/>
</clipPath>
<clipPath id="clip1_576_1579">
<rect width="739.702" height="688.266" fill="white" transform="translate(-9.57599 592)"/>
</clipPath>
</defs>
</svg>
