<?xml version="1.0" standalone="no"?>
<!DOCTYPE svg PUBLIC "-//W3C//DTD SVG 20010904//EN"
 "http://www.w3.org/TR/2001/REC-SVG-20010904/DTD/svg10.dtd">
<svg version="1.0" xmlns="http://www.w3.org/2000/svg"
 width="2164.000000pt" height="2164.000000pt" viewBox="0 0 2164.000000 2164.000000"
 preserveAspectRatio="xMidYMid meet">
<metadata>
Created by potrace 1.14, written by Peter Selinger 2001-2017
</metadata>
<g transform="translate(0.000000,2164.000000) scale(0.100000,-0.100000)"
fill="#000000" stroke="none">
<path d="M7257 19024 c-1 -1 -63 -5 -137 -8 -74 -4 -153 -9 -174 -11 -120 -11
-164 -16 -181 -19 -11 -2 -51 -7 -89 -10 -38 -4 -72 -9 -75 -11 -3 -1 -28 -6
-56 -9 -27 -4 -86 -13 -130 -22 -44 -8 -93 -17 -110 -20 -109 -19 -172 -33
-282 -60 -58 -14 -113 -27 -122 -29 -9 -2 -65 -17 -126 -34 -60 -16 -137 -37
-170 -45 -95 -26 -339 -108 -352 -119 -7 -5 -13 -7 -13 -4 0 5 -33 -6 -95 -32
-11 -5 -45 -19 -75 -31 -30 -12 -79 -33 -108 -46 -29 -13 -55 -24 -58 -24 -8
0 -312 -152 -379 -190 -610 -342 -1074 -741 -1469 -1264 -134 -178 -386 -578
-386 -613 0 -7 -4 -13 -8 -13 -7 0 -94 -172 -97 -190 0 -3 -6 -14 -12 -25 -31
-56 -107 -255 -148 -385 -55 -178 -68 -222 -80 -285 -2 -11 -11 -50 -19 -86
-8 -36 -17 -77 -19 -90 -3 -13 -12 -62 -20 -109 -19 -100 -27 -152 -32 -200
-2 -19 -6 -53 -9 -75 -11 -91 -21 -202 -32 -370 -5 -86 -5 -508 0 -560 3 -27
8 -80 10 -116 6 -64 31 -258 41 -309 3 -14 10 -52 15 -85 6 -33 14 -78 20
-100 5 -22 18 -83 30 -135 12 -52 24 -102 26 -110 3 -8 5 -15 4 -15 -1 0 23
-83 57 -195 32 -111 54 -172 66 -187 5 -7 7 -13 4 -13 -6 0 25 -85 68 -185 14
-33 33 -77 41 -97 23 -54 164 -331 177 -348 7 -8 21 -32 31 -52 11 -21 24 -38
29 -38 6 0 8 -3 4 -6 -6 -7 80 -147 94 -152 5 -2 9 -8 9 -14 0 -23 255 -363
375 -497 125 -142 437 -440 456 -437 4 1 15 -9 25 -21 36 -42 199 -164 384
-287 177 -118 212 -140 290 -184 19 -11 67 -37 105 -59 39 -22 95 -52 125 -67
30 -15 62 -31 70 -36 23 -14 273 -132 285 -135 5 -1 36 -14 67 -28 171 -79
619 -217 811 -251 15 -3 37 -8 50 -12 12 -4 31 -8 42 -9 11 -1 34 -4 50 -8 17
-4 44 -9 60 -12 17 -3 55 -9 85 -14 52 -9 85 -15 165 -26 71 -10 101 -14 170
-20 39 -4 79 -9 89 -11 10 -2 60 -6 110 -9 50 -4 109 -9 131 -12 22 -3 1071
-7 2330 -9 4169 -7 5130 -10 5155 -16 14 -4 52 -9 85 -13 84 -9 234 -41 335
-71 279 -84 507 -232 681 -442 119 -143 251 -430 286 -622 2 -13 10 -53 18
-90 7 -36 16 -96 20 -135 4 -38 9 -79 12 -90 5 -25 3 -266 -2 -320 -31 -300
-117 -560 -248 -750 -119 -171 -283 -316 -467 -412 -138 -72 -338 -141 -485
-167 -16 -3 -39 -8 -50 -10 -11 -2 -45 -7 -75 -11 -30 -3 -66 -8 -80 -10 -14
-2 -59 -7 -100 -11 -41 -4 -2730 -8 -5975 -8 l-5900 -1 -1 -1972 c-1 -1794 1
-1972 15 -1975 32 -7 11881 -1 12016 6 77 4 156 9 175 11 19 2 67 6 105 9 39
4 84 8 100 11 17 2 53 7 80 10 53 6 105 14 145 21 14 2 45 7 70 10 25 3 64 10
88 15 23 5 59 12 80 14 38 6 70 12 110 20 12 3 32 7 45 10 12 2 33 7 47 10 59
12 71 15 88 19 9 3 58 14 107 26 333 80 887 268 1190 405 33 15 92 41 130 58
187 83 573 292 718 388 32 22 60 39 62 39 4 0 178 117 250 169 28 19 93 69
145 111 92 72 105 83 160 130 14 12 45 38 69 58 105 87 402 393 507 522 16 19
35 41 42 48 28 30 144 184 219 292 149 212 337 544 438 770 21 47 46 104 56
127 148 331 291 803 345 1142 3 18 8 43 10 55 2 11 7 41 10 66 3 25 8 53 10
64 2 10 6 44 9 75 4 31 8 67 11 81 2 14 6 56 10 95 3 38 8 86 10 105 24 236
24 814 -1 985 -2 17 -6 55 -9 85 -8 77 -15 127 -26 190 -5 30 -12 71 -14 90
-3 19 -10 60 -16 90 -6 30 -13 69 -16 85 -3 17 -9 46 -14 65 -5 19 -12 50 -15
67 -7 43 -85 345 -91 355 -3 4 -7 18 -9 30 -8 42 -118 375 -167 508 -111 297
-231 549 -398 830 -38 65 -152 243 -160 250 -3 3 -18 25 -35 50 -26 40 -187
256 -228 306 -179 219 -342 395 -533 572 -116 109 -299 260 -428 354 -28 21
-55 41 -61 45 -52 42 -410 273 -422 273 -4 0 -14 6 -22 14 -9 7 -41 26 -71 42
-30 16 -57 31 -60 34 -10 11 -316 166 -440 224 -215 100 -543 221 -749 277
-168 46 -251 67 -251 63 0 -2 -12 1 -27 7 -62 23 -497 101 -693 124 -25 3 -61
7 -80 10 -19 2 -64 7 -100 10 -36 3 -81 7 -100 10 -19 2 -76 6 -126 10 -50 3
-126 8 -170 12 -43 3 -1735 7 -3759 8 -2024 1 -3714 5 -3755 9 -41 4 -82 12
-90 16 -9 5 -27 11 -41 13 -25 4 -62 18 -118 45 -51 24 -152 128 -192 197 -70
120 -99 264 -94 455 6 210 39 321 126 422 106 124 337 215 600 235 52 4 794 7
1649 7 1054 0 1557 4 1562 11 5 6 8 6 8 0 0 -7 1260 -10 3761 -10 l3761 0 0
1968 c0 1083 -3 1972 -7 1975 -5 5 -10692 11 -10698 6z"/>
</g>
</svg>
